<svg width="46" height="13" viewBox="0 0 46 13" fill="none" xmlns="http://www.w3.org/2000/svg">
<path fill-rule="evenodd" clip-rule="evenodd" d="M27.7087 0.478271H31.2171C32.3908 0.478271 33.2751 0.788259 33.7739 1.37449C34.2279 1.90775 34.3785 2.66947 34.2216 3.63885C33.873 5.85528 32.5394 6.97366 30.2285 6.97366H29.1183C28.8785 6.97366 28.6743 7.14821 28.6369 7.38519L28.2345 9.93542C28.2085 10.1013 28.0655 10.2235 27.8976 10.2235H26.0976C25.9178 10.2235 25.7806 10.063 25.8087 9.88559L27.2273 0.889801C27.2647 0.652817 27.4689 0.478271 27.7087 0.478271ZM29.5382 5.02308C30.4685 5.02308 31.4303 5.02308 31.622 3.76373C31.6917 3.32161 31.6359 3.00169 31.4514 2.78583C31.143 2.42508 30.5448 2.42508 29.9117 2.42508H29.669C29.5251 2.42508 29.4026 2.52977 29.3802 2.67184L29.0089 5.02308H29.5382ZM40.023 3.72352H41.7029C41.8827 3.72352 42.0198 3.88388 41.9918 4.06142L41.0837 9.81212C41.0462 10.0491 40.842 10.2235 40.6022 10.2235H39.0895C38.9095 10.2235 38.7724 10.0628 38.8006 9.88528L38.8755 9.4184C38.8755 9.4184 38.0458 10.3794 36.5498 10.3794C35.6782 10.3794 34.9467 10.1284 34.434 9.52531C33.8761 8.86891 33.6481 7.92854 33.8086 6.94449C34.1172 4.97183 35.7028 3.56538 37.5586 3.56538C38.3683 3.56538 39.179 3.74181 39.5429 4.26987L39.6602 4.44015L39.7342 3.97044C39.7566 3.82806 39.8791 3.72352 40.023 3.72352ZM37.4657 8.59755C38.4376 8.59755 39.1995 7.95314 39.3618 6.99322C39.4354 6.52887 39.3343 6.10693 39.077 5.8053C38.8214 5.50587 38.434 5.34757 37.957 5.34757C36.9998 5.34757 36.2256 6.0128 36.0744 6.96405C35.9956 7.43076 36.0891 7.84986 36.3376 8.14408C36.5884 8.44082 36.9784 8.59755 37.4657 8.59755ZM42.2431 9.88559L43.683 0.725347C43.7054 0.583125 43.8279 0.478271 43.9718 0.478271H45.5924C45.7722 0.478271 45.9093 0.638784 45.8813 0.816325L44.4616 9.81212C44.4242 10.0489 44.22 10.2235 43.9802 10.2235H42.532C42.3524 10.2235 42.2152 10.0631 42.2431 9.88559Z" fill="#2790C3"/>
<path fill-rule="evenodd" clip-rule="evenodd" d="M2.68634 0.478271H6.19475C7.36832 0.478271 8.25256 0.788259 8.7516 1.37449C9.20554 1.90775 9.35612 2.66947 9.19924 3.63885C8.85062 5.85528 7.51685 6.97366 5.20614 6.97366H4.09595C3.85613 6.97366 3.65178 7.14821 3.61457 7.38519L3.23174 9.81212C3.19437 10.0489 2.99002 10.2235 2.7502 10.2235H1.07507C0.895477 10.2235 0.758301 10.063 0.786209 9.88559L2.20496 0.889801C2.24233 0.652817 2.44652 0.478271 2.68634 0.478271ZM4.51584 5.02308C5.44596 5.02308 6.40777 5.02308 6.5995 3.76373C6.66935 3.32161 6.61354 3.00169 6.4289 2.78583C6.12065 2.42508 5.52243 2.42508 4.88921 2.42508H4.64655C4.50275 2.42508 4.38024 2.52977 4.35769 2.67184L3.98652 5.02308H4.51584ZM15.0007 3.72352H16.6806C16.8603 3.72352 16.9975 3.88388 16.9694 4.06142L16.0612 9.81212C16.0239 10.0491 15.8197 10.2235 15.5798 10.2235H14.067C13.8872 10.2235 13.75 10.0628 13.7781 9.88528L13.8532 9.4184C13.8532 9.4184 13.0235 10.3794 11.5275 10.3794C10.6558 10.3794 9.92422 10.1284 9.41162 9.52531C8.85361 8.86891 8.62562 7.92854 8.78629 6.94449C9.09486 4.97183 10.6803 3.56538 12.5363 3.56538C13.3459 3.56538 14.1567 3.74181 14.5204 4.26987L14.6379 4.44015L14.7118 3.97044C14.7342 3.82806 14.8567 3.72352 15.0007 3.72352ZM12.4432 8.59755C13.4151 8.59755 14.1772 7.95314 14.3394 6.99322C14.4131 6.52887 14.312 6.10693 14.0547 5.8053C13.7989 5.50587 13.4117 5.34757 12.9345 5.34757C11.9775 5.34757 11.2033 6.0128 11.0519 6.96405C10.9732 7.43076 11.0667 7.84986 11.3152 8.14408C11.5659 8.44082 11.956 8.59755 12.4432 8.59755ZM23.9393 3.72352H25.6278C25.8638 3.72352 26.0026 3.98873 25.8682 4.18267L20.2528 12.287C20.1617 12.4185 20.0121 12.4968 19.8522 12.4968H18.1652C17.9279 12.4968 17.7893 12.2289 17.9267 12.0353L19.6754 9.56772L17.8161 4.1103C17.7515 3.92062 17.8926 3.72352 18.093 3.72352H19.7529C19.9682 3.72352 20.1581 3.86496 20.2197 4.0712L21.2069 7.36769L23.5361 3.93717C23.6268 3.80362 23.7778 3.72352 23.9393 3.72352Z" fill="#27346A"/>
</svg>
